<?xml version="1.0" encoding="UTF-8" standalone="no"?>
<!-- Uploaded to: SVG Repo, www.svgrepo.com, Transformed by: SVG Repo Mixer Tools -->

<svg
   width="800"
   height="800"
   viewBox="-2.4 -2.4 28.8 28.8"
   fill="none"
   stroke="#ffffff"
   stroke-width="0.00024"
   version="1.1"
   id="svg5"
   xmlns="http://www.w3.org/2000/svg"
   xmlns:svg="http://www.w3.org/2000/svg">
  <defs
     id="defs5" />
  <g
     id="SVGRepo_iconCarrier"
     transform="matrix(1.4157649,0,0,1.4157649,-4.9891788,-4.9891967)">
    <path
       fill-rule="evenodd"
       clip-rule="evenodd"
       d="M 2,12 V 8 C 2,5.17157 2,3.75736 2.87868,2.87868 3.75736,2 5.17157,2 8,2 h 8 c 2.8284,0 4.2426,0 5.1213,0.87868 C 22,3.75736 22,5.17157 22,8 v 4 c 0,2.8284 0,4.2426 -0.8787,5.1213 -0.4763,0.4764 -1.11,0.6945 -2.0411,0.7943 -0.074,-0.0999 -0.144,-0.1786 -0.194,-0.2335 C 18.7701,17.5544 18.6228,17.4092 18.48,17.2684 L 16.987,15.7962 16.4357,15.2377 C 16.0733,13.1151 14.2255,11.5 12.0001,11.5 9.77461,11.5 7.9268,13.1151 7.56446,15.2377 L 7.01311,15.7962 5.5202,17.2683 C 5.37739,17.4091 5.23008,17.5543 5.11392,17.6821 5.06395,17.737 4.9939,17.8157 4.9199,17.9156 3.98877,17.8158 3.35503,17.5977 2.87868,17.1213 2,16.2426 2,14.8284 2,12 Z M 9,5.25 C 8.58579,5.25 8.25,5.58579 8.25,6 8.25,6.41421 8.58579,6.75 9,6.75 h 6 C 15.4142,6.75 15.75,6.41421 15.75,6 15.75,5.58579 15.4142,5.25 15,5.25 Z M 6.25,9.5 C 6.25,9.08579 6.58579,8.75 7,8.75 h 10 c 0.4142,0 0.75,0.33579 0.75,0.75 0,0.41421 -0.3358,0.75 -0.75,0.75 H 7 C 6.58579,10.25 6.25,9.91421 6.25,9.5 Z"
       fill="#9dc997"
       id="path1" />
    <path
       d="m 15,16 c 0,1.6569 -1.3431,3 -3,3 -1.6569,0 -3,-1.3431 -3,-3 0,-1.6569 1.3431,-3 3,-3 1.6569,0 3,1.3431 3,3 z"
       fill="#9dc997"
       id="path2" />
    <path
       d="M 9.00111,15.9174 C 9.00037,15.9449 9,15.9724 9,16 c 0,1.6569 1.3431,3 3,3 1.6569,0 3,-1.3431 3,-3 0,-0.0276 -4e-4,-0.0551 -0.0011,-0.0826 C 14.9551,14.2987 13.6292,13 12,13 10.4467,13 9.16912,14.1805 9.01549,15.6933 9.00798,15.7672 9.00315,15.842 9.00111,15.9174 Z"
       fill="#9dc997"
       id="path3" />
    <path
       d="m 7.6757,17.2494 -1.08047,1.0654 c -0.32407,0.3196 -0.4861,0.4794 -0.54217,0.6147 -0.12777,0.3083 -0.01843,0.6504 0.25977,0.8126 0.12209,0.0711 0.34229,0.0933 0.7827,0.1377 0.24867,0.025 0.373,0.0375 0.47713,0.0756 0.23313,0.0851 0.41449,0.2639 0.50079,0.4938 0.03855,0.1027 0.05125,0.2253 0.07665,0.4705 0.04499,0.4343 0.06748,0.6514 0.13967,0.7718 0.16448,0.2744 0.51134,0.3822 0.82403,0.2562 0.13722,-0.0553 0.29926,-0.2151 0.62333,-0.5347 l 1.08037,-1.07 C 9.30505,19.9322 8.10917,18.7524 7.6757,17.2494 Z"
       fill="#9dc997"
       id="path4" />
    <path
       d="m 13.1825,20.343 1.0804,1.07 c 0.324,0.3196 0.4861,0.4794 0.6233,0.5347 0.3127,0.126 0.6595,0.0182 0.824,-0.2562 0.0722,-0.1204 0.0947,-0.3375 0.1397,-0.7718 0.0254,-0.2452 0.0381,-0.3678 0.0766,-0.4705 0.0864,-0.2299 0.2677,-0.4087 0.5008,-0.4938 0.1042,-0.0381 0.2285,-0.0506 0.4772,-0.0756 0.4404,-0.0444 0.6606,-0.0666 0.7827,-0.1377 0.2782,-0.1622 0.3875,-0.5043 0.2597,-0.8126 -0.056,-0.1353 -0.2181,-0.2951 -0.5421,-0.6147 l -1.0805,-1.0654 c -0.4335,1.503 -1.6294,2.6828 -3.1418,3.0936 z"
       fill="#9dc997"
       id="path5" />
  </g>
</svg>
